<svg xmlns="http://www.w3.org/2000/svg" width="1440" height="6532" viewBox="0 0 1440 6532"><defs><radialGradient id="heroGlow" cx=".75" cy=".25" r=".75"><stop offset="0" stop-color="#7D6CFF" stop-opacity=".42"/><stop offset=".5" stop-color="#79F2D0" stop-opacity=".11"/><stop offset="1" stop-color="#07101E" stop-opacity="0"/></radialGradient><linearGradient id="flow" x1="0" y1="0" x2="1" y2="0"><stop offset="0" stop-color="#79F2D0"/><stop offset="1" stop-color="#7D6CFF"/></linearGradient></defs><style>.D{font:800 72px Inter,Arial;letter-spacing:-3px;fill:#F4F8FF}.H{font:750 34px Inter,Arial;fill:#F4F8FF}.T{font:700 18px Inter,Arial;fill:#F4F8FF}.E{font:700 11px Inter,Arial;letter-spacing:2px;fill:#79F2D0}.B{font:400 16px Inter,Arial;fill:#9DB0CB}.S{font:700 10px Inter,Arial;letter-spacing:1.2px;fill:#79F2D0}.M{font:500 12px Inter,Arial;fill:#9DB0CB}</style><rect width="1440" height="6532" fill="#07101E"/><rect width="1440" height="82" fill="#07101E" stroke="#263B59"/><circle cx="72" cy="41" r="14" fill="none" stroke="#79F2D0" stroke-width="2"/><text x="98" y="48" class="T">PROAI EXPERT</text><text x="1368" y="48" class="M" text-anchor="end">SERVICES · WORK · INSIGHTS · ABOUT · CONTACT · EN/RU</text><rect x="0" y="82" width="1440" height="780" fill="url(#heroGlow)"/><text x="72" y="192" class="E">AI SYSTEMS, AUTOMATION &amp; PREMIUM WEBSITES</text><text x="72" y="287" class="D">Build trust.</text><text x="72" y="373" class="D" style="fill:#79F2D0">Handle inquiries.</text><text x="72" y="459" class="D">Reduce manual work.</text><text x="72" y="570" class="B"><tspan x="72">Premium websites, practical automation, and human-reviewed AI.</tspan><tspan x="72" dy="25">A controlled journey from trust to response and follow-up.</tspan></text><rect x="72" y="680" width="230" height="54" rx="24" fill="#79F2D0"/><text x="187" y="713" class="S" text-anchor="middle" style="fill:#07101E">REQUEST A PRIVATE REVIEW</text><rect x="320" y="680" width="170" height="54" rx="24" fill="none" stroke="#263B59"/><text x="405" y="713" class="S" text-anchor="middle">VIEW CLIENT WORK</text><rect x="820" y="190" width="500" height="500" rx="24" fill="#132946" stroke="#263B59"/><circle cx="930" cy="290" r="48" fill="none" stroke="#79F2D0" opacity=".75"/><circle cx="1180" cy="290" r="56" fill="none" stroke="#79F2D0" opacity=".75"/><circle cx="930" cy="500" r="64" fill="none" stroke="#79F2D0" opacity=".75"/><circle cx="1180" cy="500" r="72" fill="none" stroke="#79F2D0" opacity=".75"/><path d="M930 290 C1040 360,1070 360,1180 290 M930 500 C1040 430,1070 430,1180 500" fill="none" stroke="#7D6CFF" stroke-width="2"/><rect x="0" y="862" width="1440" height="720" fill="#0D1A2D"/><text x="72" y="924" class="E">02</text><text x="132" y="924" class="T">CONNECTED BUSINESS JOURNEY</text><line x1="72" y1="950" x2="1368" y2="950" stroke="#263B59"/><rect x="72" y="992" width="400" height="98" rx="24" fill="#132946" stroke="#263B59"/><text x="94" y="1032" class="S">TRUST FRICTION</text><rect x="508" y="992" width="400" height="98" rx="24" fill="#132946" stroke="#263B59"/><text x="530" y="1032" class="S">INQUIRY FRICTION</text><rect x="944" y="992" width="400" height="98" rx="24" fill="#132946" stroke="#263B59"/><text x="966" y="1032" class="S">OPERATIONAL FRICTION</text><rect x="72" y="1147" width="286" height="170" rx="24" fill="#07101E" stroke="#263B59"/><text x="90" y="1192" class="E">01</text><text x="90" y="1242" class="T">Understand &amp; trust</text><rect x="396" y="1147" width="286" height="170" rx="24" fill="#07101E" stroke="#263B59"/><text x="414" y="1192" class="E">02</text><text x="414" y="1242" class="T">Submit a clear request</text><rect x="720" y="1147" width="286" height="170" rx="24" fill="#07101E" stroke="#263B59"/><text x="738" y="1192" class="E">03</text><text x="738" y="1242" class="T">Route &amp; respond</text><rect x="1044" y="1147" width="286" height="170" rx="24" fill="#07101E" stroke="#263B59"/><text x="1062" y="1192" class="E">04</text><text x="1062" y="1242" class="T">Follow up &amp; improve</text><rect x="72" y="1362" width="1296" height="150" rx="24" fill="none" stroke="#79F2D0"/><text x="98" y="1417" class="H"><tspan x="98">The website shapes the decision before contact.</tspan><tspan x="98" dy="40">Automation protects the handoff after contact.</tspan></text><rect x="0" y="1582" width="1440" height="520" fill="#07101E"/><text x="72" y="1644" class="E">03</text><text x="132" y="1644" class="T">TWO CORE DIRECTIONS</text><line x1="72" y1="1670" x2="1368" y2="1670" stroke="#263B59"/><rect x="72" y="1712" width="620" height="320" rx="24" fill="#0D1A2D" stroke="#263B59"/><text x="100" y="1772" class="H">AI Systems &amp; Automation</text><text x="100" y="1842" class="B">Inquiry handling, routing, follow-up, internal workflows.</text><text x="100" y="1972" class="S">EXPLORE DIRECTION →</text><rect x="732" y="1712" width="620" height="320" rx="24" fill="#0D1A2D" stroke="#263B59"/><text x="760" y="1772" class="H">Premium Websites &amp; Branding</text><text x="760" y="1842" class="B">Positioning, trust, context, premium digital presence.</text><text x="760" y="1972" class="S">EXPLORE DIRECTION →</text><rect x="0" y="2102" width="1440" height="820" fill="#0D1A2D"/><text x="72" y="2164" class="E">04</text><text x="132" y="2164" class="T">FINANCIAL STREAM — FLAGSHIP CLIENT PROOF</text><line x1="72" y1="2190" x2="1368" y2="2190" stroke="#263B59"/><rect x="72" y="2232" width="760" height="590" rx="24" fill="#132946" stroke="#263B59"/><rect x="96" y="2256" width="712" height="54" rx="12" fill="#07101E"/><rect x="96" y="2328" width="712" height="250" rx="12" fill="#07101E" opacity=".78"/><rect x="96" y="2598" width="216" height="178" rx="12" fill="#07101E" opacity=".82"/><rect x="334" y="2598" width="216" height="178" rx="12" fill="#07101E" opacity=".82"/><rect x="572" y="2598" width="216" height="178" rx="12" fill="#07101E" opacity=".82"/><rect x="868" y="2232" width="500" height="590" rx="24" fill="#132946" stroke="#263B59"/><text x="902" y="2287" class="S">LIVE CLIENT PROJECT · EN/RU</text><text x="902" y="2357" class="H">A clearer service story.</text><text x="902" y="2417" class="B"><tspan x="902">Bilingual accounting and tax support.</tspan><tspan x="902" dy="25">Structured request before long first calls.</tspan></text><text x="902" y="2762" class="S">VIEW CASE STUDY · VISIT LIVE SITE →</text><rect x="0" y="2922" width="1440" height="900" fill="#07101E"/><text x="72" y="2984" class="E">05</text><text x="132" y="2984" class="T">WAYS TO START</text><line x1="72" y1="3010" x2="1368" y2="3010" stroke="#263B59"/><rect x="72" y="3047" width="1296" height="210" rx="24" fill="#0D1A2D" stroke="#263B59"/><text x="98" y="3099" class="E">01</text><text x="160" y="3099" class="H">Website &amp; trust</text><text x="160" y="3152" class="B">Best when · First objective · Not implied</text><rect x="1020" y="3089" width="300" height="48" rx="24" fill="#79F2D0"/><text x="1170" y="3119" class="S" text-anchor="middle" style="fill:#07101E">CONTEXTUAL REVIEW</text><text x="1020" y="3179" class="S">WEBSITES &amp; BRANDING →</text><rect x="72" y="3287" width="1296" height="210" rx="24" fill="#0D1A2D" stroke="#263B59"/><text x="98" y="3339" class="E">02</text><text x="160" y="3339" class="H">Inquiry handling</text><text x="160" y="3392" class="B">Best when · First objective · Not implied</text><rect x="1020" y="3329" width="300" height="48" rx="24" fill="#79F2D0"/><text x="1170" y="3359" class="S" text-anchor="middle" style="fill:#07101E">CONTEXTUAL REVIEW</text><text x="1020" y="3419" class="S">AI SYSTEMS &amp; AUTOMATION →</text><rect x="72" y="3527" width="1296" height="210" rx="24" fill="#0D1A2D" stroke="#263B59"/><text x="98" y="3579" class="E">03</text><text x="160" y="3579" class="H">Connected system</text><text x="160" y="3632" class="B">Best when · First objective · Not implied</text><rect x="1020" y="3569" width="300" height="48" rx="24" fill="#79F2D0"/><text x="1170" y="3599" class="S" text-anchor="middle" style="fill:#07101E">CONTEXTUAL REVIEW</text><text x="1020" y="3659" class="S">AI SYSTEMS · WEBSITES →</text><rect x="0" y="3822" width="1440" height="520" fill="#0D1A2D"/><text x="72" y="3884" class="E">06</text><text x="132" y="3884" class="T">CONTROLLED DELIVERY</text><line x1="72" y1="3910" x2="1368" y2="3910" stroke="#263B59"/><rect x="72" y="3962" width="225" height="280" rx="24" fill="#132946" stroke="#263B59"/><text x="94" y="4007" class="E">01</text><text x="94" y="4067" class="H">Review</text><text x="94" y="4137" class="B">Decision</text><text x="94" y="4172" class="B">Artifact</text><text x="94" y="4207" class="B">Verified result</text><rect x="329" y="3962" width="225" height="280" rx="24" fill="#132946" stroke="#263B59"/><text x="351" y="4007" class="E">02</text><text x="351" y="4067" class="H">Define</text><text x="351" y="4137" class="B">Decision</text><text x="351" y="4172" class="B">Artifact</text><text x="351" y="4207" class="B">Verified result</text><rect x="586" y="3962" width="225" height="280" rx="24" fill="#132946" stroke="#263B59"/><text x="608" y="4007" class="E">03</text><text x="608" y="4067" class="H">Build</text><text x="608" y="4137" class="B">Decision</text><text x="608" y="4172" class="B">Artifact</text><text x="608" y="4207" class="B">Verified result</text><rect x="843" y="3962" width="225" height="280" rx="24" fill="#132946" stroke="#263B59"/><text x="865" y="4007" class="E">04</text><text x="865" y="4067" class="H">Verify</text><text x="865" y="4137" class="B">Decision</text><text x="865" y="4172" class="B">Artifact</text><text x="865" y="4207" class="B">Verified result</text><rect x="1100" y="3962" width="225" height="280" rx="24" fill="#132946" stroke="#263B59"/><text x="1122" y="4007" class="E">05</text><text x="1122" y="4067" class="H">Improve</text><text x="1122" y="4137" class="B">Decision</text><text x="1122" y="4172" class="B">Artifact</text><text x="1122" y="4207" class="B">Verified result</text><rect x="0" y="4342" width="1440" height="420" fill="#07101E"/><text x="72" y="4404" class="E">07</text><text x="132" y="4404" class="T">FOUNDER ACCOUNTABILITY</text><line x1="72" y1="4430" x2="1368" y2="4430" stroke="#263B59"/><rect x="72" y="4472" width="260" height="220" rx="24" fill="#132946" stroke="#263B59"/><circle cx="202" cy="4572" r="64" fill="#263B59"/><rect x="370" y="4472" width="998" height="220" rx="24" fill="#0D1A2D" stroke="#263B59"/><text x="410" y="4537" class="H">Direct accountability from strategy through verification.</text><text x="410" y="4602" class="B">Founder-led · bounded claims · visible evidence · controlled delivery.</text><text x="410" y="4664" class="S">ABOUT · LINKEDIN →</text><rect x="0" y="4762" width="1440" height="700" fill="#0D1A2D"/><text x="72" y="4824" class="E">08</text><text x="132" y="4824" class="T">SELECTED WORK</text><line x1="72" y1="4850" x2="1368" y2="4850" stroke="#263B59"/><rect x="72" y="4892" width="620" height="500" rx="24" fill="#132946" stroke="#263B59"/><rect x="96" y="4916" width="572" height="230" rx="12" fill="#07101E" opacity=".8"/><text x="100" y="5192" class="H">ALINA HORB</text><text x="100" y="5237" class="S">LIVE FOUNDER-CONNECTED PROJECT · UA/RU</text><text x="100" y="5287" class="M">Related-party proof; not independent client validation.</text><text x="100" y="5362" class="S">VIEW PROJECT →</text><rect x="732" y="4892" width="620" height="500" rx="24" fill="#132946" stroke="#263B59"/><rect x="756" y="4916" width="572" height="230" rx="12" fill="#07101E" opacity=".8"/><text x="760" y="5192" class="H">LOCAL REPAIR PRO</text><text x="760" y="5237" class="S">WEBSITE CONCEPT · LIVE DEMO · IN DEVELOPMENT</text><text x="760" y="5287" class="M">Not a paid client or operating repair company.</text><text x="760" y="5362" class="S">VIEW PROJECT →</text><rect x="0" y="5462" width="1440" height="500" fill="#07101E"/><text x="72" y="5524" class="E">09</text><text x="132" y="5524" class="T">INSIGHTS</text><line x1="72" y1="5550" x2="1368" y2="5550" stroke="#263B59"/><rect x="72" y="5602" width="400" height="270" rx="24" fill="#0D1A2D" stroke="#263B59"/><text x="96" y="5647" class="E">GUIDE 01</text><text x="96" y="5707" class="T">How to reduce friction before automation</text><text x="96" y="5827" class="S">READ INSIGHT →</text><rect x="508" y="5602" width="400" height="270" rx="24" fill="#0D1A2D" stroke="#263B59"/><text x="532" y="5647" class="E">GUIDE 02</text><text x="532" y="5707" class="T">What a premium service website must prove</text><text x="532" y="5827" class="S">READ INSIGHT →</text><rect x="944" y="5602" width="400" height="270" rx="24" fill="#0D1A2D" stroke="#263B59"/><text x="968" y="5647" class="E">GUIDE 03</text><text x="968" y="5707" class="T">Where human review belongs in AI workflows</text><text x="968" y="5827" class="S">READ INSIGHT →</text><rect x="0" y="5962" width="1440" height="420" fill="#0D1A2D"/><text x="72" y="6024" class="E">10</text><text x="132" y="6024" class="T">PRIVATE REVIEW</text><line x1="72" y1="6050" x2="1368" y2="6050" stroke="#263B59"/><text x="72" y="6152" class="D" style="font-size:58px">Start with the problem that affects the business most.</text><rect x="72" y="6237" width="260" height="56" rx="24" fill="#79F2D0"/><text x="202" y="6271" class="S" text-anchor="middle" style="fill:#07101E">REQUEST A PRIVATE REVIEW</text><text x="360" y="6270" class="B">A focused first step — not the largest possible project.</text><rect x="0" y="6382" width="1440" height="150" fill="#07101E" stroke="#263B59"/><text x="72" y="6448" class="T">PROAI EXPERT</text><text x="72" y="6494" class="M">Concept C — Luminous Systems · Full-page comparison artifact</text></svg>