<svg xmlns="http://www.w3.org/2000/svg" width="390" height="8068" viewBox="0 0 390 8068"><defs><linearGradient id="heroGlow" x1="0" y1="0" x2="1" y2="1"><stop offset="0" stop-color="#E7E1D8" stop-opacity="1"/><stop offset="1" stop-color="#FBFAF7" stop-opacity="1"/></linearGradient></defs><style>.D{font:800 44px Inter,Arial;letter-spacing:-1.6px;fill:#171717}.H{font:750 26px Inter,Arial;fill:#171717}.T{font:700 15px Inter,Arial;fill:#171717}.E{font:700 9px Inter,Arial;letter-spacing:1.4px;fill:#185ADB}.B{font:400 14px Inter,Arial;fill:#6A665F}.M{font:500 10px Inter,Arial;fill:#6A665F}.S{font:700 8.5px Inter,Arial;letter-spacing:1px;fill:#185ADB}</style><rect width="390" height="8068" fill="#F3F0E9"/><rect width="390" height="68" fill="#F3F0E9" stroke="#C9C2B6"/><circle cx="28" cy="34" r="10" fill="none" stroke="#185ADB" stroke-width="2"/><text x="48" y="39" class="T">PROAI EXPERT</text><text x="360" y="39" class="M" text-anchor="end">MENU</text><rect x="0" y="68" width="390" height="880" fill="url(#heroGlow)"/><text x="20" y="138" class="E"><tspan x="20">AI-СИСТЕМЫ, АВТОМАТИЗАЦИЯ И</tspan><tspan x="20" dy="14">ПРЕМИАЛЬНЫЕ САЙТЫ ДЛЯ СЕРВИСНОГО БИЗНЕСА</tspan></text><text x="20" y="213" class="D">Выстраиваем</text><text x="20" y="264" class="D">доверие.</text><text x="20" y="315" class="D">Наводим порядок</text><text x="20" y="366" class="D">в обращениях.</text><text x="20" y="417" class="D">Сокращаем ручную</text><text x="20" y="468" class="D">работу.</text><text x="20" y="553" class="B"><tspan x="20">Премиальный сайт, практическая автоматизация</tspan><tspan x="20" dy="20">и AI с проверкой человеком — от доверия до</tspan><tspan x="20" dy="20">контролируемого следующего шага.</tspan></text><rect x="20" y="718" width="350" height="50" rx="2" fill="#185ADB"/><text x="195" y="749" class="S" text-anchor="middle" style="fill:#F3F0E9">ЗАПРОСИТЬ ПЕРВИЧНЫЙ РАЗБОР</text><rect x="20" y="784" width="350" height="82" rx="2" fill="#E7E1D8" stroke="#C9C2B6"/><text x="34" y="815" class="M"><tspan x="34">Коротко опишите бизнес и основную проблему.</tspan><tspan x="34" dy="16">Мы определим приоритет и следующий полезный шаг.</tspan></text><rect x="0" y="948" width="390" height="900" fill="#FBFAF7"/><text x="20" y="986" class="E">02</text><text x="58" y="986" class="T">CONNECTED JOURNEY</text><line x1="20" y1="1002" x2="370" y2="1002" stroke="#C9C2B6"/><rect x="20" y="1038" width="350" height="56" rx="2" fill="#E7E1D8" stroke="#C9C2B6"/><text x="34" y="1072" class="S">НЕДОСТАТОК ДОВЕРИЯ</text><rect x="20" y="1110" width="350" height="56" rx="2" fill="#E7E1D8" stroke="#C9C2B6"/><text x="34" y="1144" class="S">НЕЯСНОЕ ОБРАЩЕНИЕ</text><rect x="20" y="1182" width="350" height="56" rx="2" fill="#E7E1D8" stroke="#C9C2B6"/><text x="34" y="1216" class="S">СБОИ В РАБОТЕ</text><rect x="20" y="1278" width="350" height="76" rx="2" fill="#F3F0E9" stroke="#C9C2B6"/><text x="34" y="1307" class="E">01</text><text x="72" y="1324" class="T">Понять и доверять</text><rect x="20" y="1370" width="350" height="76" rx="2" fill="#F3F0E9" stroke="#C9C2B6"/><text x="34" y="1399" class="E">02</text><text x="72" y="1416" class="T">Оставить понятный запрос</text><rect x="20" y="1462" width="350" height="76" rx="2" fill="#F3F0E9" stroke="#C9C2B6"/><text x="34" y="1491" class="E">03</text><text x="72" y="1508" class="T">Направить и ответить</text><rect x="20" y="1554" width="350" height="76" rx="2" fill="#F3F0E9" stroke="#C9C2B6"/><text x="34" y="1583" class="E">04</text><text x="72" y="1600" class="T">Продолжить и улучшить</text><rect x="20" y="1668" width="350" height="140" rx="2" fill="none" stroke="#185ADB"/><text x="34" y="1700" class="B"><tspan x="34">Сайт формирует решение до обращения.</tspan><tspan x="34" dy="20">Автоматизация защищает процесс после него.</tspan><tspan x="34" dy="20">Вместе они работают как единая система.</tspan></text><rect x="0" y="1848" width="390" height="620" fill="#F3F0E9"/><text x="20" y="1886" class="E">03</text><text x="58" y="1886" class="T">TWO CORE DIRECTIONS</text><line x1="20" y1="1902" x2="370" y2="1902" stroke="#C9C2B6"/><rect x="20" y="1938" width="350" height="220" rx="2" fill="#FBFAF7" stroke="#C9C2B6"/><text x="34" y="1993" class="H">AI-системы и автоматизация</text><text x="34" y="2073" class="B">Проблема · решение · ожидаемый эффект</text><text x="34" y="2128" class="S">ОТКРЫТЬ НАПРАВЛЕНИЕ →</text><rect x="20" y="2188" width="350" height="220" rx="2" fill="#FBFAF7" stroke="#C9C2B6"/><text x="34" y="2243" class="H">Премиальные сайты и брендинг</text><text x="34" y="2323" class="B">Проблема · решение · ожидаемый эффект</text><text x="34" y="2378" class="S">ОТКРЫТЬ НАПРАВЛЕНИЕ →</text><rect x="0" y="2468" width="390" height="860" fill="#FBFAF7"/><text x="20" y="2506" class="E">04</text><text x="58" y="2506" class="T">FINANCIAL STREAM</text><line x1="20" y1="2522" x2="370" y2="2522" stroke="#C9C2B6"/><rect x="20" y="2558" width="350" height="360" rx="2" fill="#E7E1D8" stroke="#C9C2B6"/><rect x="36" y="2576" width="318" height="48" rx="4" fill="#F3F0E9"/><rect x="36" y="2640" width="318" height="140" rx="4" fill="#F3F0E9" opacity=".8"/><rect x="36" y="2796" width="96" height="98" rx="4" fill="#F3F0E9" opacity=".85"/><rect x="142" y="2796" width="96" height="98" rx="4" fill="#F3F0E9" opacity=".85"/><rect x="248" y="2796" width="96" height="98" rx="4" fill="#F3F0E9" opacity=".85"/><text x="20" y="2968" class="S">ДЕЙСТВУЮЩИЙ КЛИЕНТСКИЙ ПРОЕКТ · EN/RU</text><text x="20" y="3018" class="H">Более ясная подача услуг.</text><text x="20" y="3078" class="B"><tspan x="20">Два языка, структурированный запрос,</tspan><tspan x="20" dy="20">меньшая зависимость от долгих первых звонков.</tspan></text><rect x="20" y="3178" width="350" height="78" rx="2" fill="#F3F0E9" stroke="#C9C2B6"/><text x="34" y="3216" class="S">ДОКАЗАТЕЛЬСТВА И ГРАНИЦЫ УТВЕРЖДЕНИЙ</text><rect x="0" y="3328" width="390" height="1110" fill="#F3F0E9"/><text x="20" y="3366" class="E">05</text><text x="58" y="3366" class="T">WAYS TO START</text><line x1="20" y1="3382" x2="370" y2="3382" stroke="#C9C2B6"/><rect x="20" y="3418" width="350" height="290" rx="2" fill="#FBFAF7" stroke="#C9C2B6"/><text x="34" y="3456" class="E">01</text><text x="72" y="3460" class="H">Сайт и доверие</text><text x="34" y="3518" class="M">ЛУЧШЕ ВСЕГО, КОГДА</text><text x="34" y="3554" class="M">ПЕРВАЯ ЦЕЛЬ</text><text x="34" y="3590" class="M">ЧТО ЭТО НЕ ОЗНАЧАЕТ</text><rect x="34" y="3612" width="322" height="42" rx="2" fill="#185ADB"/><text x="195" y="3638" class="S" text-anchor="middle" style="fill:#F3F0E9">CONTEXTUAL REVIEW</text><text x="34" y="3684" class="S">WEBSITES &amp; BRANDING →</text><rect x="20" y="3738" width="350" height="290" rx="2" fill="#FBFAF7" stroke="#C9C2B6"/><text x="34" y="3776" class="E">02</text><text x="72" y="3780" class="H">Обращения и процесс</text><text x="34" y="3838" class="M">ЛУЧШЕ ВСЕГО, КОГДА</text><text x="34" y="3874" class="M">ПЕРВАЯ ЦЕЛЬ</text><text x="34" y="3910" class="M">ЧТО ЭТО НЕ ОЗНАЧАЕТ</text><rect x="34" y="3932" width="322" height="42" rx="2" fill="#185ADB"/><text x="195" y="3958" class="S" text-anchor="middle" style="fill:#F3F0E9">CONTEXTUAL REVIEW</text><text x="34" y="4004" class="S">AI SYSTEMS &amp; AUTOMATION →</text><rect x="20" y="4058" width="350" height="290" rx="2" fill="#FBFAF7" stroke="#C9C2B6"/><text x="34" y="4096" class="E">03</text><text x="72" y="4100" class="H">Связанная система</text><text x="34" y="4158" class="M">ЛУЧШЕ ВСЕГО, КОГДА</text><text x="34" y="4194" class="M">ПЕРВАЯ ЦЕЛЬ</text><text x="34" y="4230" class="M">ЧТО ЭТО НЕ ОЗНАЧАЕТ</text><rect x="34" y="4252" width="322" height="42" rx="2" fill="#185ADB"/><text x="195" y="4278" class="S" text-anchor="middle" style="fill:#F3F0E9">CONTEXTUAL REVIEW</text><text x="34" y="4324" class="S">AI SYSTEMS · WEBSITES →</text><rect x="0" y="4438" width="390" height="720" fill="#FBFAF7"/><text x="20" y="4476" class="E">06</text><text x="58" y="4476" class="T">CONTROLLED DELIVERY</text><line x1="20" y1="4492" x2="370" y2="4492" stroke="#C9C2B6"/><rect x="20" y="4528" width="350" height="92" rx="2" fill="#E7E1D8" stroke="#C9C2B6"/><text x="34" y="4562" class="E">01</text><text x="74" y="4583" class="T">Разобрать контекст</text><rect x="20" y="4640" width="350" height="92" rx="2" fill="#E7E1D8" stroke="#C9C2B6"/><text x="34" y="4674" class="E">02</text><text x="74" y="4695" class="T">Определить границы</text><rect x="20" y="4752" width="350" height="92" rx="2" fill="#E7E1D8" stroke="#C9C2B6"/><text x="34" y="4786" class="E">03</text><text x="74" y="4807" class="T">Создать систему</text><rect x="20" y="4864" width="350" height="92" rx="2" fill="#E7E1D8" stroke="#C9C2B6"/><text x="34" y="4898" class="E">04</text><text x="74" y="4919" class="T">Запустить и проверить</text><rect x="20" y="4976" width="350" height="92" rx="2" fill="#E7E1D8" stroke="#C9C2B6"/><text x="34" y="5010" class="E">05</text><text x="74" y="5031" class="T">Улучшать по данным</text><rect x="0" y="5158" width="390" height="500" fill="#F3F0E9"/><text x="20" y="5196" class="E">07</text><text x="58" y="5196" class="T">FOUNDER ACCOUNTABILITY</text><line x1="20" y1="5212" x2="370" y2="5212" stroke="#C9C2B6"/><circle cx="90" cy="5348" r="62" fill="#E7E1D8" stroke="#C9C2B6"/><text x="178" y="5303" class="H">Прямая ответственность.</text><text x="178" y="5363" class="B"><tspan x="178">Founder-led работа</tspan><tspan x="178" dy="20">от стратегии до проверки.</tspan></text><text x="178" y="5438" class="S">ABOUT · LINKEDIN →</text><rect x="0" y="5658" width="390" height="1100" fill="#FBFAF7"/><text x="20" y="5696" class="E">08</text><text x="58" y="5696" class="T">SELECTED WORK</text><line x1="20" y1="5712" x2="370" y2="5712" stroke="#C9C2B6"/><rect x="20" y="5748" width="350" height="450" rx="2" fill="#E7E1D8" stroke="#C9C2B6"/><rect x="36" y="5766" width="318" height="175" rx="2" fill="#F3F0E9" opacity=".8"/><text x="36" y="5983" class="H">ALINA HORB</text><text x="36" y="6033" class="S">ДЕЙСТВУЮЩИЙ ПРОЕКТ, СВЯЗАННЫЙ С ОСНОВАТЕЛЕМ · UA/RU</text><text x="36" y="6098" class="M">Связан с основателем; не независимое подтверждение.</text><text x="36" y="6168" class="S">СМОТРЕТЬ ПРОЕКТ →</text><rect x="20" y="6228" width="350" height="450" rx="2" fill="#E7E1D8" stroke="#C9C2B6"/><rect x="36" y="6246" width="318" height="175" rx="2" fill="#F3F0E9" opacity=".8"/><text x="36" y="6463" class="H">LOCAL REPAIR PRO</text><text x="36" y="6513" class="S">КОНЦЕПЦИЯ САЙТА · РАБОЧЕЕ ДЕМО · В РАЗРАБОТКЕ</text><text x="36" y="6578" class="M">Не оплаченный клиент и не действующая компания.</text><text x="36" y="6648" class="S">СМОТРЕТЬ ПРОЕКТ →</text><rect x="0" y="6758" width="390" height="720" fill="#F3F0E9"/><text x="20" y="6796" class="E">09</text><text x="58" y="6796" class="T">INSIGHTS</text><line x1="20" y1="6812" x2="370" y2="6812" stroke="#C9C2B6"/><rect x="20" y="6848" width="350" height="160" rx="2" fill="#FBFAF7" stroke="#C9C2B6"/><text x="34" y="6880" class="E">GUIDE 01</text><text x="34" y="6928" class="T">Как уменьшить трение до автоматизации</text><text x="34" y="6984" class="S">ЧИТАТЬ →</text><rect x="20" y="7038" width="350" height="160" rx="2" fill="#FBFAF7" stroke="#C9C2B6"/><text x="34" y="7070" class="E">GUIDE 02</text><text x="34" y="7118" class="T">Что должен доказать премиальный сайт</text><text x="34" y="7174" class="S">ЧИТАТЬ →</text><rect x="20" y="7228" width="350" height="160" rx="2" fill="#FBFAF7" stroke="#C9C2B6"/><text x="34" y="7260" class="E">GUIDE 03</text><text x="34" y="7308" class="T">Где нужен human review в AI-процессах</text><text x="34" y="7364" class="S">ЧИТАТЬ →</text><rect x="0" y="7478" width="390" height="460" fill="#FBFAF7"/><text x="20" y="7516" class="E">10</text><text x="58" y="7516" class="T">PRIVATE REVIEW</text><line x1="20" y1="7532" x2="370" y2="7532" stroke="#C9C2B6"/><text x="20" y="7593" class="H"><tspan x="20">Начните с проблемы, которая</tspan><tspan x="20" dy="34">сильнее всего влияет на бизнес.</tspan></text><rect x="20" y="7748" width="350" height="52" rx="2" fill="#185ADB"/><text x="195" y="7780" class="S" text-anchor="middle" style="fill:#F3F0E9">ЗАПРОСИТЬ ПЕРВИЧНЫЙ РАЗБОР</text><rect x="0" y="7938" width="390" height="130" fill="#F3F0E9" stroke="#C9C2B6"/><text x="20" y="7986" class="T">PROAI EXPERT</text><text x="20" y="8020" class="M">Concept B — Executive Signal · Mobile comparison</text></svg>