<svg xmlns="http://www.w3.org/2000/svg" viewBox="0 0 920 360" fill="none">
  <rect width="920" height="360" rx="24" fill="#F3F6FB"/>
  <rect x="42" y="78" width="184" height="204" rx="16" fill="#FFFFFF" stroke="#D8E2F1" stroke-width="2"/>
  <rect x="262" y="78" width="184" height="204" rx="16" fill="#FFFFFF" stroke="#D8E2F1" stroke-width="2"/>
  <rect x="482" y="78" width="184" height="204" rx="16" fill="#FFFFFF" stroke="#D8E2F1" stroke-width="2"/>
  <rect x="702" y="78" width="176" height="204" rx="16" fill="#FFFFFF" stroke="#D8E2F1" stroke-width="2"/>
  <path d="M226 180H262M446 180H482M666 180H702" stroke="#11213C" stroke-width="4" stroke-linecap="round"/>
  <path d="M248 170L262 180L248 190" stroke="#11213C" stroke-width="4" stroke-linecap="round" stroke-linejoin="round"/>
  <path d="M468 170L482 180L468 190" stroke="#11213C" stroke-width="4" stroke-linecap="round" stroke-linejoin="round"/>
  <path d="M688 170L702 180L688 190" stroke="#11213C" stroke-width="4" stroke-linecap="round" stroke-linejoin="round"/>
  <rect x="72" y="106" width="48" height="48" rx="16" stroke="#2F6DF4" stroke-width="4"/>
  <path d="M84 130H108" stroke="#11213C" stroke-width="4" stroke-linecap="round"/>
  <path d="M96 118V142" stroke="#11213C" stroke-width="4" stroke-linecap="round"/>
  <rect x="292" y="106" width="48" height="48" rx="16" stroke="#2F6DF4" stroke-width="4"/>
  <path d="M304 124H328M304 136H320" stroke="#11213C" stroke-width="4" stroke-linecap="round"/>
  <circle cx="524" cy="130" r="24" stroke="#0F9D7A" stroke-width="4"/>
  <path d="M514 130L522 138L536 122" stroke="#11213C" stroke-width="4" stroke-linecap="round" stroke-linejoin="round"/>
  <rect x="732" y="106" width="48" height="48" rx="16" stroke="#0F9D7A" stroke-width="4"/>
  <path d="M744 140H768M744 128H760" stroke="#11213C" stroke-width="4" stroke-linecap="round"/>
  <text x="72" y="188" fill="#11213C" font-size="26" font-family="Trebuchet MS" font-weight="700">Front door</text>
  <text x="72" y="222" fill="#4D5F7F" font-size="18" font-family="Trebuchet MS">website</text>
  <text x="72" y="246" fill="#4D5F7F" font-size="18" font-family="Trebuchet MS">forms</text>
  <text x="72" y="270" fill="#4D5F7F" font-size="18" font-family="Trebuchet MS">inbound channels</text>
  <text x="292" y="188" fill="#11213C" font-size="26" font-family="Trebuchet MS" font-weight="700">Routing</text>
  <text x="292" y="222" fill="#4D5F7F" font-size="18" font-family="Trebuchet MS">qualification</text>
  <text x="292" y="246" fill="#4D5F7F" font-size="18" font-family="Trebuchet MS">branching</text>
  <text x="292" y="270" fill="#4D5F7F" font-size="18" font-family="Trebuchet MS">handoff rules</text>
  <text x="512" y="188" fill="#11213C" font-size="26" font-family="Trebuchet MS" font-weight="700">Ops layer</text>
  <text x="512" y="222" fill="#4D5F7F" font-size="18" font-family="Trebuchet MS">owner summaries</text>
  <text x="512" y="246" fill="#4D5F7F" font-size="18" font-family="Trebuchet MS">review points</text>
  <text x="512" y="270" fill="#4D5F7F" font-size="18" font-family="Trebuchet MS">controls</text>
  <text x="732" y="188" fill="#11213C" font-size="26" font-family="Trebuchet MS" font-weight="700">Reporting</text>
  <text x="732" y="222" fill="#4D5F7F" font-size="18" font-family="Trebuchet MS">weekly digest</text>
  <text x="732" y="246" fill="#4D5F7F" font-size="18" font-family="Trebuchet MS">gaps</text>
  <text x="732" y="270" fill="#4D5F7F" font-size="18" font-family="Trebuchet MS">next-step plan</text>
</svg>
