<svg xmlns="http://www.w3.org/2000/svg" width="128" height="128" viewBox="0 0 128 128" fill="none">
<title>Concept C</title>

    <defs>
      <linearGradient id="concept-c-top" x1="22" y1="16" x2="102" y2="52" gradientUnits="userSpaceOnUse">
        <stop stop-color="#D2D6DA"/><stop offset="1" stop-color="#767E86"/>
      </linearGradient>
      <linearGradient id="concept-c-left" x1="18" y1="42" x2="68" y2="116" gradientUnits="userSpaceOnUse">
        <stop stop-color="#F3F1EC"/><stop offset="1" stop-color="#9CA3A9"/>
      </linearGradient>
      <linearGradient id="concept-c-right" x1="66" y1="58" x2="112" y2="103" gradientUnits="userSpaceOnUse">
        <stop stop-color="#242A31"/><stop offset="1" stop-color="#0C0F13"/>
      </linearGradient>
      <linearGradient id="concept-c-spectral" x1="88" y1="20" x2="114" y2="39" gradientUnits="userSpaceOnUse">
        <stop stop-color="#676BFF"/><stop offset="1" stop-color="#9BA8FF"/>
      </linearGradient>
    </defs>
      <path d="M64 8L113 36L64 64L15 36L64 8Z" fill="url(#concept-c-top)"/>
      <path d="M15 36L64 64V120L15 92V36Z" fill="url(#concept-c-left)"/>
      <path d="M64 64L113 36V92L64 120V64Z" fill="url(#concept-c-right)"/>
      <path d="M15.8 36.4L64 64.2L112.2 36.4" stroke="#050607" stroke-opacity=".72" stroke-width="1.15"/>
    <path d="M16.8 35.6L64 8.7L87.5 22.1" stroke="#F3F1EC" stroke-opacity=".64" stroke-width="1.45" stroke-linecap="round"/><path d="M91.8 25L111.3 36.2" stroke="#9BA8FF" stroke-opacity=".48" stroke-width="1.65" stroke-linecap="round"/><path d="M18 40L61.5 65.1" stroke="#F3F1EC" stroke-opacity=".34" stroke-width="1"/>
</svg>